<?xml version="1.0" encoding="utf-8"?>
<!-- Generator: Adobe Illustrator 15.1.0, SVG Export Plug-In . SVG Version: 6.00 Build 0)  -->
<!DOCTYPE svg PUBLIC "-//W3C//DTD SVG 1.1//EN" "http://www.w3.org/Graphics/SVG/1.1/DTD/svg11.dtd">
<svg version="1.1" id="Calque_1" xmlns="http://www.w3.org/2000/svg" xmlns:xlink="http://www.w3.org/1999/xlink" x="0px" y="0px"
	 width="595.28px" height="841.89px" viewBox="0 0 595.28 841.89" enable-background="new 0 0 595.28 841.89" xml:space="preserve">
<g>
	<g>
		<g>
			<g>
				<path fill="#373F40" d="M308.842,259.394c-23.878,0-43.302-19.424-43.302-43.303s19.424-43.302,43.302-43.302
					c23.879,0,43.303,19.424,43.303,43.302S332.721,259.394,308.842,259.394z M308.842,187.223
					c-15.922,0-28.869,12.951-28.869,28.869c0,15.918,12.947,28.869,28.869,28.869s28.869-12.951,28.869-28.869
					C337.711,200.174,324.764,187.223,308.842,187.223z"/>
			</g>
			<g>
				<path fill="#373F40" d="M308.842,259.394c-23.878,0-43.302-19.424-43.302-43.303s19.424-43.302,43.302-43.302
					c23.879,0,43.303,19.424,43.303,43.302S332.721,259.394,308.842,259.394z M308.842,187.223
					c-15.922,0-28.869,12.951-28.869,28.869c0,15.918,12.947,28.869,28.869,28.869s28.869-12.951,28.869-28.869
					C337.711,200.174,324.764,187.223,308.842,187.223z"/>
			</g>
			<g>
				<path fill="#373F40" d="M402.664,389.301H215.02v-57.736c0-31.835,25.9-57.736,57.737-57.736h72.17
					c31.837,0,57.737,25.901,57.737,57.736V389.301z M229.453,374.868h158.775v-43.303c0-23.878-19.424-43.302-43.302-43.302h-72.17
					c-23.88,0-43.304,19.424-43.304,43.302V374.868z"/>
			</g>
			<g>
				<rect x="258.322" y="345.999" fill="#373F40" width="14.435" height="36.086"/>
			</g>
			<g>
				<rect x="344.927" y="345.999" fill="#373F40" width="14.435" height="36.086"/>
			</g>
		</g>
		<g>
			<polygon fill="#373F40" points="539.789,475.907 431.533,475.907 431.533,461.474 525.354,461.474 525.354,216.091 
				366.579,216.091 366.579,201.658 539.789,201.658 			"/>
		</g>
		<g>
			<polygon fill="#373F40" points="186.15,475.907 77.895,475.907 77.895,201.658 251.104,201.658 251.104,216.091 92.328,216.091 
				92.328,461.474 186.15,461.474 			"/>
		</g>
		<g>
			<path fill="#373F40" d="M445.967,432.605h-274.25v-57.738h274.25V432.605z M186.15,418.17h245.383v-28.869H186.15V418.17z"/>
		</g>
		<g>
			<polygon fill="#373F40" points="402.664,634.684 388.229,634.684 388.229,432.605 229.453,432.605 229.453,634.684 
				215.02,634.684 215.02,418.17 402.664,418.17 			"/>
		</g>
		<g>
			<path fill="#373F40" d="M359.361,605.814h-101.04V461.474h101.04V605.814z M272.757,591.381h72.17V475.907h-72.17V591.381z"/>
		</g>
		<g>
			<rect x="301.624" y="302.696" fill="#373F40" width="14.436" height="14.435"/>
		</g>
		<g>
			<rect x="301.624" y="331.565" fill="#373F40" width="14.436" height="14.434"/>
		</g>
	</g>
</g>
</svg>
